<svg width="58pt" height="59pt" version="1.0" viewBox="0 0 58.000000 59.000000" xmlns="http://www.w3.org/2000/svg">
	<g transform="translate(0 59) scale(.05 -.05)" fill="#d9ba4e">
	<path d="m712 1165c-8-8-84-25-169-38-503-75-471-59-455-234 7-78 25-165 40-195 16-32 20-65 10-81-32-50-19-57 87-49 233 19 333 57 308 121-7 18 5 32 33 37 46 9 3 13-196 20-95 4-100 1-106-51-15-124-78-66-99 90-10 80-22 158-27 174-6 21 41 37 202 66 116 21 226 47 245 57s60 18 91 18 66 10 79 23c17 17 26 8 36-35 27-120 33-141 73-243 22-58 49-105 58-105 10 0 18-10 18-23 0-12 31-65 69-118 78-109 77-112-89-168-168-57-287-115-316-155-15-20-44-36-65-36-22 0-39-8-39-19 0-10-25-22-55-27l-55-8 55-3c30-2 55-11 55-20 0-14 85-63 111-63 5 0 9 17 9 38s11 44 25 50 5 7-20 0c-32-8-45-2-45 21 0 18 17 31 40 31 22 0 40 9 40 20s13 20 29 20c34 0 405 152 468 193 4 2-35 63-85 135-51 73-92 141-92 152s-9 20-20 20-20 17-20 37-6 43-14 50c-19 19-85 234-86 278 0 36-97 51-128 20z"/>
	<path d="m708 1020c-10-10-56-21-103-24s-85-12-85-18c0-7-54-24-120-38s-120-33-120-42-14-12-30-5c-22 8-30-2-28-36 0-26 6-36 11-22 6 14 46 25 94 25 46 0 124 13 173 29 50 15 128 39 175 53 47 13 85 36 85 50 0 35-29 51-52 28z"/>
	<path d="m652 830c-37-28-37-30 9-47 62-23 147 1 155 43 9 44-108 46-164 4z"/>
	<path d="m760 693c-38-13-80-30-93-38s-40-10-60-3c-31 10-32 8-7-10 26-18 24-25-15-53-25-17-45-44-45-60s-8-29-19-29c-10 0-21-25-25-55-3-30-16-55-29-55s-30-6-37-14c-8-7-28-8-45-1-19 7-26 3-19-9 7-11-9-30-35-42-35-16-45-33-37-63 14-54 62-52 87 4 22 47 103 95 161 95 19 0 38 9 41 20 4 12 34 25 67 31 33 5 78 17 100 27 22 9 63 26 90 38 28 12 70 27 95 34s45 26 45 42c0 32-57 24-177-25-38-15-85-27-105-27-21 0-38-9-38-20s-18-20-40-20c-40 0-50 31-28 88 7 18 21 27 31 20 10-6 30-3 43 7s65 30 114 46c91 28 125 54 108 83-13 20-40 18-128-11z"/>
	<path d="m40 510c0-49 9-90 20-90s20-22 20-50c0-39 10-50 48-50 54 0 80-44 46-78-16-16-13-22 12-22 19 0 34 14 34 30 0 17 9 30 20 30 45 0 16 53-40 74-42 16-60 36-60 66 0 31-9 41-30 33-16-6-29-5-27 3 1 8 1 43-1 79-3 100-42 77-42-25z"/>
	<path d="m80 150c0-40 10-50 50-50 59 0 64 22 13 67-50 45-63 42-63-17z"/>
	<path d="m260 80c0-67 59-84 111-31 39 38 36 51-11 51-22 0-40 9-40 20s-13 20-30 20c-20 0-30-20-30-60z"/>
	</g>
</svg>