<svg width="51pt" height="56pt" version="1.0" viewBox="0 0 51.000000 56.000000" xmlns="http://www.w3.org/2000/svg">
	<g transform="translate(0 56) scale(.05 -.05)" fill="#d6d7fd">
	<path d="m581 1e3c-8-5-25-28-37-50-13-22-23-29-23-15-1 45-180 5-181-40 0-8 16-15 35-15 30-1 30-3 5-19-19-12-37-12-49 0-28 28-93 23-158-11-32-17-75-30-97-30-42 0-43-47-4-270 21-124 125-193 228-152l50 19-55 2c-30 0-55 9-55 20 0 10-18 24-40 31-46 15-54 70-10 70 17 0 30 14 30 30 0 17-18 30-41 30s-36-9-29-20 5-20-4-20c-17 0-66 139-66 190 0 16 17 30 37 30 21 0 60 17 87 38 33 27 58 33 77 21 22-14 19-18-16-19-25 0-45-9-45-20s18-20 40-20 40-9 40-20c0-21 45-17 105 9 24 10 35 38 35 85 0 60 5 68 35 54 19-8 86-16 148-17 133-1 152-13 111-71-21-31-32-35-39-16-8 21-15 21-36 1-15-14-52-25-83-25s-56-9-56-20-18-20-40-20-40-9-40-20-13-20-30-20c-20 0-30-20-30-60 0-33 10-60 21-60 12 0 19 19 15 43-4 28 6 45 29 48 21 3 36-8 37-28 1-21 5-24 11-8 6 14 19 25 30 25s14-11 7-25-1-11 14 7c25 30 156 46 156 18 0-7 14-13 31-13 18 0 26 11 20 27s-2 23 9 16c24-15 27-90 3-90-9 0-16-13-16-30 0-16 12-30 26-30 20 0 27 36 27 136 0 112 7 140 40 164 22 16 40 40 40 54s9 26 20 26 20 23 20 50c0 28-9 50-20 50s-20-19-20-41c0-23-13-55-29-70-32-33-91-39-91-9 0 11 9 20 20 20s20 17 20 38c0 37-176 71-219 42zm179-60c0-11-40-20-90-20-49 0-90 9-90 20s41 20 90 20c50 0 90-9 90-20z"/>
	<path d="m700 420c0-79-1-80-75-80-81 0-77 10-67-155 1-15 30-25 72-25 67 0 70-3 70-70 0-70 0-70 90-70s90 0 90 70c0 67 3 70 70 70 70 0 70 0 70 90s0 90-70 90c-68 0-70 2-70 80v80h-90-90v-80zm104-1c-14-59 41-119 109-119 46 0 67-9 67-30 0-20-20-30-61-30-70 0-123-43-118-95 7-66-1-84-31-72-16 6-30 36-30 65 0 66-33 102-94 102-73 0-56 56 19 64 52 5 66 16 71 56 3 28 10 62 15 77 12 34 61 17 53-18z"/>
	<path d="m560 466c-27-5-59-18-69-28s-35-18-55-18c-28 0-36-16-36-70 0-57 8-70 40-70s40 13 40 70c0 64 5 70 60 70 33 0 60 8 60 19 0 10 16 22 35 27 45 12-8 12-75 0z"/>
	<path d="m191 311c43-33 109-41 109-13 0 22-50 42-105 42-42 0-42-1-4-29z"/>
	<path d="m80 229c0-91 97-144 156-85 32 32 30 57-3 44-15-6-33 4-40 21-6 17-26 31-42 31-17 0-31 9-31 20s-9 20-20 20-20-23-20-51z"/>
	<path d="m480 224c0-12-31-28-70-35-57-11-70-22-70-63 0-91 91-138 151-77 43 43 35 71-21 71-31 0-50 11-50 30 0 17 13 30 29 30 32 0 61 36 43 55-7 6-12 2-12-11z"/>
	</g>
</svg>