<svg version="1.0" xmlns="http://www.w3.org/2000/svg"
					 width="22.000000pt" height="27.000000pt" viewBox="0 0 22.000000 27.000000"
					 preserveAspectRatio="xMidYMid meet">
	<g transform="translate(0.000000,27.000000) scale(0.100000,-0.100000)"
	fill="#69c15b" stroke="none">
	<path d="M0 135 l0 -136 108 3 107 3 0 130 0 130 -107 3 -108 3 0 -136z m205
	0 l0 -125 -97 0 -98 0 0 125 0 125 98 0 97 0 0 -125z"/>
	<path d="M30 230 c0 -6 33 -10 80 -10 47 0 80 4 80 10 0 6 -33 10 -80 10 -47
	0 -80 -4 -80 -10z"/>
	<path d="M25 190 c3 -5 22 -10 41 -10 19 0 34 5 34 10 0 6 -18 10 -41 10 -24
	0 -38 -4 -34 -10z"/>
	<path d="M120 170 c-11 -7 -3 -10 28 -10 26 0 41 4 37 10 -8 13 -45 13 -65 0z"/>
	<path d="M38 153 c12 -2 30 -2 40 0 9 3 -1 5 -23 4 -22 0 -30 -2 -17 -4z"/>
	<path d="M107 138 c2 -5 13 -8 24 -8 14 0 18 -4 13 -12 -6 -9 -3 -9 9 0 9 8
	21 11 27 7 5 -3 10 -2 10 3 0 6 -20 12 -44 13 -24 2 -42 1 -39 -3z"/>
	<path d="M25 120 c-4 -6 10 -10 34 -10 23 0 41 5 41 10 0 6 -15 10 -34 10 -19
	0 -38 -4 -41 -10z"/>
	<path d="M158 93 c6 -2 18 -2 25 0 6 3 1 5 -13 5 -14 0 -19 -2 -12 -5z"/>
	<path d="M48 83 c18 -2 45 -2 60 0 15 2 0 4 -33 4 -33 0 -45 -2 -27 -4z"/>
	<path d="M125 60 c-27 -7 -25 -8 18 -9 26 0 47 4 47 9 0 11 -21 11 -65 0z"/>
	<path d="M33 43 c9 -2 25 -2 35 0 9 3 1 5 -18 5 -19 0 -27 -2 -17 -5z"/>
	</g>
</svg>