<svg version="1.0" xmlns="http://www.w3.org/2000/svg"
				 width="69.000000pt" height="84.000000pt" viewBox="0 0 69.000000 84.000000"
				 preserveAspectRatio="xMidYMid meet">
<metadata>
Created by potrace 1.10, written by Peter Selinger 2001-2011
</metadata>
<g transform="translate(0.000000,84.000000) scale(0.100000,-0.100000)"
fill="#dbbf2b" stroke="none">
<path d="M2 423 l3 -418 312 -3 c258 -2 314 0 326 12 11 11 15 75 20 318 7
313 3 433 -15 481 l-10 27 -319 0 -319 0 2 -417z m416 382 l202 -7 -2 -379 -3
-379 -265 -5 c-146 -3 -278 -7 -295 -8 l-30 -2 -5 380 c-3 209 -2 385 2 390 9
14 160 18 396 10z"/>
<path d="M92 713 l3 -28 229 -3 c238 -2 249 -1 239 39 -5 18 -18 19 -240 19
l-234 0 3 -27z"/>
<path d="M90 595 c-8 -10 -9 -19 -4 -24 12 -12 203 -20 210 -10 3 5 2 18 -1
29 -6 18 -15 20 -99 20 -72 0 -96 -4 -106 -15z"/>
<path d="M356 521 c-12 -18 117 -28 158 -12 18 7 18 8 -5 14 -36 10 -147 8
-153 -2z"/>
<path d="M82 483 c3 -16 15 -18 93 -18 78 0 90 2 93 18 3 15 -7 17 -93 17 -86
0 -96 -2 -93 -17z"/>
<path d="M326 473 c-4 -9 -2 -21 4 -27 7 -7 10 -2 10 17 0 31 -5 34 -14 10z"/>
<path d="M410 427 c0 -8 60 -37 77 -37 7 0 13 7 13 15 0 9 -9 15 -22 15 -13 0
-33 3 -45 6 -13 4 -23 4 -23 1z"/>
<path d="M84 375 c-4 -9 -4 -18 -2 -21 3 -2 52 -5 109 -7 98 -2 104 -1 104 18
0 19 -8 20 -103 23 -86 2 -103 0 -108 -13z"/>
<path d="M488 303 c12 -2 32 -2 45 0 12 2 2 4 -23 4 -25 0 -35 -2 -22 -4z"/>
<path d="M221 290 c-76 -3 -136 -9 -138 -15 -8 -27 17 -33 157 -36 l145 -4 3
24 c3 21 -14 44 -28 39 -3 -1 -65 -5 -139 -8z"/>
<path d="M401 199 c-72 -14 -60 -19 47 -19 102 0 135 12 65 24 -45 7 -54 7
-112 -5z"/>
<path d="M142 172 c-53 -2 -63 -6 -60 -20 3 -14 17 -18 82 -20 50 -2 83 1 92
9 30 24 -15 36 -114 31z"/>
<path d="M683 595 c0 -27 2 -38 4 -22 2 15 2 37 0 50 -2 12 -4 0 -4 -28z"/>
</g>
</svg>