<?xml version="1.0" standalone="no"?>
<!DOCTYPE svg PUBLIC "-//W3C//DTD SVG 20010904//EN"
 "http://www.w3.org/TR/2001/REC-SVG-20010904/DTD/svg10.dtd">
<svg version="1.0" xmlns="http://www.w3.org/2000/svg"
 width="58.000000pt" height="59.000000pt" viewBox="0 0 58.000000 59.000000"
 preserveAspectRatio="xMidYMid meet">
<metadata>
Created by potrace 1.10, written by Peter Selinger 2001-2011
</metadata>
<g transform="translate(0.000000,59.000000) scale(0.050000,-0.050000)"
fill="#d9ba4e" stroke="none">
<path d="M712 1165 c-8 -8 -84 -25 -169 -38 -503 -75 -471 -59 -455 -234 7
-78 25 -165 40 -195 16 -32 20 -65 10 -81 -32 -50 -19 -57 87 -49 233 19 333
57 308 121 -7 18 5 32 33 37 46 9 3 13 -196 20 -95 4 -100 1 -106 -51 -15
-124 -78 -66 -99 90 -10 80 -22 158 -27 174 -6 21 41 37 202 66 116 21 226 47
245 57 19 10 60 18 91 18 31 0 66 10 79 23 17 17 26 8 36 -35 27 -120 33 -141
73 -243 22 -58 49 -105 58 -105 10 0 18 -10 18 -23 0 -12 31 -65 69 -118 78
-109 77 -112 -89 -168 -168 -57 -287 -115 -316 -155 -15 -20 -44 -36 -65 -36
-22 0 -39 -8 -39 -19 0 -10 -25 -22 -55 -27 l-55 -8 55 -3 c30 -2 55 -11 55
-20 0 -14 85 -63 111 -63 5 0 9 17 9 38 0 21 11 44 25 50 14 6 5 7 -20 0 -32
-8 -45 -2 -45 21 0 18 17 31 40 31 22 0 40 9 40 20 0 11 13 20 29 20 34 0 405
152 468 193 4 2 -35 63 -85 135 -51 73 -92 141 -92 152 0 11 -9 20 -20 20 -11
0 -20 17 -20 37 0 20 -6 43 -14 50 -19 19 -85 234 -86 278 0 36 -97 51 -128
20z"/>
<path d="M708 1020 c-10 -10 -56 -21 -103 -24 -47 -3 -85 -12 -85 -18 0 -7
-54 -24 -120 -38 -66 -14 -120 -33 -120 -42 0 -9 -14 -12 -30 -5 -22 8 -30 -2
-28 -36 0 -26 6 -36 11 -22 6 14 46 25 94 25 46 0 124 13 173 29 50 15 128 39
175 53 47 13 85 36 85 50 0 35 -29 51 -52 28z"/>
<path d="M652 830 c-37 -28 -37 -30 9 -47 62 -23 147 1 155 43 9 44 -108 46
-164 4z"/>
<path d="M760 693 c-38 -13 -80 -30 -93 -38 -13 -8 -40 -10 -60 -3 -31 10 -32
8 -7 -10 26 -18 24 -25 -15 -53 -25 -17 -45 -44 -45 -60 0 -16 -8 -29 -19 -29
-10 0 -21 -25 -25 -55 -3 -30 -16 -55 -29 -55 -13 0 -30 -6 -37 -14 -8 -7 -28
-8 -45 -1 -19 7 -26 3 -19 -9 7 -11 -9 -30 -35 -42 -35 -16 -45 -33 -37 -63
14 -54 62 -52 87 4 22 47 103 95 161 95 19 0 38 9 41 20 4 12 34 25 67 31 33
5 78 17 100 27 22 9 63 26 90 38 28 12 70 27 95 34 25 7 45 26 45 42 0 32 -57
24 -177 -25 -38 -15 -85 -27 -105 -27 -21 0 -38 -9 -38 -20 0 -11 -18 -20 -40
-20 -40 0 -50 31 -28 88 7 18 21 27 31 20 10 -6 30 -3 43 7 13 10 65 30 114
46 91 28 125 54 108 83 -13 20 -40 18 -128 -11z"/>
<path d="M40 510 c0 -49 9 -90 20 -90 11 0 20 -22 20 -50 0 -39 10 -50 48 -50
54 0 80 -44 46 -78 -16 -16 -13 -22 12 -22 19 0 34 14 34 30 0 17 9 30 20 30
45 0 16 53 -40 74 -42 16 -60 36 -60 66 0 31 -9 41 -30 33 -16 -6 -29 -5 -27
3 1 8 1 43 -1 79 -3 100 -42 77 -42 -25z"/>
<path d="M80 150 c0 -40 10 -50 50 -50 59 0 64 22 13 67 -50 45 -63 42 -63
-17z"/>
<path d="M260 80 c0 -67 59 -84 111 -31 39 38 36 51 -11 51 -22 0 -40 9 -40
20 0 11 -13 20 -30 20 -20 0 -30 -20 -30 -60z"/>
</g>
</svg>
