<?xml version="1.0" standalone="no"?>
<!DOCTYPE svg PUBLIC "-//W3C//DTD SVG 20010904//EN"
 "http://www.w3.org/TR/2001/REC-SVG-20010904/DTD/svg10.dtd">
<svg version="1.0" xmlns="http://www.w3.org/2000/svg"
 width="66.000000pt" height="84.000000pt" viewBox="0 0 66.000000 84.000000"
 preserveAspectRatio="xMidYMid meet">
<metadata>
Created by potrace 1.10, written by Peter Selinger 2001-2011
</metadata>
<g transform="translate(0.000000,84.000000) scale(0.100000,-0.100000)"
fill="#c76d44" stroke="none">
<path d="M6 818 c-3 -13 -6 -199 -6 -414 0 -348 2 -393 16 -398 21 -8 573 -8
613 0 l31 7 0 413 0 414 -324 0 -324 0 -6 -22z m487 -17 l127 -1 0 -377 c0
-208 -4 -384 -9 -392 -7 -10 -13 -11 -31 -1 -16 8 -96 11 -289 9 l-266 -3 -3
381 -2 382 72 3 c40 2 118 3 173 2 55 -1 157 -2 228 -3z"/>
<path d="M84 725 c-4 -8 -4 -22 0 -30 5 -13 41 -15 241 -15 l235 0 0 30 0 30
-235 0 c-200 0 -236 -2 -241 -15z"/>
<path d="M87 603 c-4 -3 -7 -14 -7 -24 0 -15 12 -18 98 -21 101 -3 128 5 116
35 -5 14 -22 17 -103 17 -54 0 -101 -3 -104 -7z"/>
<path d="M362 521 c-10 -6 -4 -10 18 -15 67 -13 185 -2 158 15 -7 5 -47 9 -88
9 -41 0 -81 -4 -88 -9z"/>
<path d="M80 480 c0 -20 5 -21 92 -18 79 3 93 6 96 21 3 15 -6 17 -92 17 -90
0 -96 -1 -96 -20z"/>
<path d="M327 493 c-11 -10 -8 -53 3 -53 6 0 10 14 10 30 0 31 -2 35 -13 23z"/>
<path d="M406 422 c-9 -15 62 -33 99 -26 19 3 35 10 35 14 0 17 -124 28 -134
12z"/>
<path d="M83 375 c-11 -29 12 -36 113 -33 91 3 99 5 99 23 0 19 -8 20 -103 23
-86 2 -103 0 -109 -13z"/>
<path d="M483 303 c15 -2 37 -2 50 0 12 2 0 4 -28 4 -27 0 -38 -2 -22 -4z"/>
<path d="M217 293 l-138 -4 3 -25 3 -25 150 -2 150 -2 3 24 c3 21 -14 44 -28
39 -3 -1 -67 -4 -143 -5z"/>
<path d="M390 197 c-44 -12 -43 -12 54 -15 54 -1 101 0 104 3 21 21 -92 30
-158 12z"/>
<path d="M87 174 c-4 -4 -7 -16 -7 -26 0 -16 9 -18 74 -18 83 0 106 6 106 26
0 11 -17 14 -69 14 -38 0 -76 2 -83 5 -8 3 -17 2 -21 -1z"/>
</g>
</svg>
